<?xml version="1.0" encoding="utf-8"?>
<!-- Generator: Adobe Illustrator 26.2.1, SVG Export Plug-In . SVG Version: 6.00 Build 0)  -->
<svg version="1.1" xmlns="http://www.w3.org/2000/svg" xmlns:xlink="http://www.w3.org/1999/xlink" x="0px" y="0px"
	 viewBox="0 0 1280 832" style="enable-background:new 0 0 1280 832;" xml:space="preserve">
<style type="text/css">
	.st0{fill-rule:evenodd;clip-rule:evenodd;fill:#FFFFEB;}
	.st1{fill-rule:evenodd;clip-rule:evenodd;fill:none;stroke:#999999;stroke-width:40;stroke-miterlimit:10;}
	.st2{fill-rule:evenodd;clip-rule:evenodd;fill:none;stroke:#F7931E;stroke-width:40;stroke-miterlimit:10;}
	.st3{fill-rule:evenodd;clip-rule:evenodd;fill:none;stroke:#FBB03B;stroke-width:40;stroke-miterlimit:10;}
	.st4{fill-rule:evenodd;clip-rule:evenodd;fill:none;stroke:#FFC6CF;stroke-width:40;stroke-miterlimit:10;}
	.st5{fill-rule:evenodd;clip-rule:evenodd;fill:none;stroke:#61BAC1;stroke-width:40;stroke-miterlimit:10;}
	.st6{display:none;}
	.st7{display:inline;}
	.st8{fill:none;stroke:#000000;stroke-miterlimit:10;}
	.st9{fill:#999999;}
	.st10{fill:#FFFFFF;}
	.st11{fill:#E6E6E6;}
</style>
<g id="Background_color">
	<rect class="st0" width="1280" height="832"/>
</g>
<g id="Retro_Rainbow">
	<path class="st1" d="M0,134.5"/>
	<g>
		<path class="st1" d="M0,173h1005.34C1094,173,1163,243,1163,330.66V832"/>
		<path class="st2" d="M0,225h994.29C1052,225,1109,270,1109,339.71V832"/>
		<path class="st3" d="M0,278h943.19C1048,276,1052,318,1052,392.71V832"/>
		<path class="st4" d="M0,333h893.88C1012,333,998,333,997,447.71L998,832"/>
		<path class="st5" d="M0,388h844.61C951,387,943,367,942.05,502.71L943,832"/>
	</g>
</g>
<g id="Logo" class="st6">
	<g class="st7">
		<g>
			<g>
				<path d="M72.54,68.9l-2.97,5.54h-1.61c2.83-5.31,5.63-10.51,8.89-16.62h1.9l2.06,16.62h-1.53l-0.68-5.54H72.54z M78.46,67.57
					c-0.52-4.61-0.92-7.29-0.92-8.37H77.5c-0.89,1.92-2.31,4.6-4.32,8.37H78.46z"/>
				<path d="M84.54,66.44c0.39-1.9,0.66-3.29,0.8-4.08h1.4c-0.02,0.29-0.23,1.56-0.44,2.49c0.99-1.77,2.6-2.68,4.45-2.68l-0.34,1.57
					c-2.67,0.15-4.26,1.92-4.84,4.69l-1.26,6.01h-1.46L84.54,66.44z"/>
				<path d="M99.62,70.88c-0.85,2.34-2.49,3.83-5.19,3.83c-2.65,0-3.91-1.81-3.91-4.53c0-3.36,1.88-8.03,6.07-8.03
					c2.8,0,3.91,1.83,3.79,4.06h-1.45c-0.01-1.25-0.36-2.77-2.53-2.77c-2.88,0-4.34,3.86-4.34,6.62c0,2.19,0.94,3.35,2.67,3.35
					c1.57,0,2.63-0.84,3.4-2.54H99.62z"/>
				<path d="M109.8,71.76c-0.16,0.77-0.44,2.1-0.52,2.68h-1.4c0.06-0.49,0.13-0.95,0.31-1.76c-0.57,0.96-1.58,1.97-3.76,1.97
					c-2.3,0-3.2-1.62-3.2-3.18c0-2.36,1.71-3.88,5.11-4.17c1-0.09,1.66-0.12,3-0.12l0.17-0.79c0.33-1.53,0.1-3.03-2.28-3.03
					c-1.91,0-2.53,1.05-2.92,2.19h-1.49c0.43-1.79,1.64-3.4,4.57-3.4c2.54,0,4.21,1.17,3.54,4.33L109.8,71.76z M109.08,68.35
					c-0.97-0.02-1.85,0.02-2.67,0.1c-2.12,0.18-3.64,1.04-3.64,2.86c0,1.17,0.65,2.08,2.11,2.08c2.65,0,3.6-2.22,4.05-4.32
					L109.08,68.35z"/>
				<path d="M125.28,56.95l-3.05,14.42c-0.24,1.07-0.5,2.43-0.6,3.06h-1.43c0.02-0.28,0.14-1.03,0.33-1.95
					c-0.77,1.27-1.83,2.17-3.8,2.17c-2.42,0-3.59-1.76-3.59-4.54c0-3.3,1.89-7.96,6.05-7.96c2.01,0,2.9,1.11,3.11,1.97l1.52-7.18
					H125.28z M114.69,69.89c0,2.34,1,3.47,2.51,3.47c2.35,0,3.58-2.03,4.29-5.32c0.7-3.24-0.32-4.57-2.4-4.57
					C116.08,63.47,114.69,67.38,114.69,69.89z"/>
				<path d="M127.83,62.36h1.46l-2.56,12.08h-1.46L127.83,62.36z M128.97,56.95h1.46l-0.51,2.43h-1.46L128.97,56.95z"/>
				<path d="M138.76,71.76c-0.16,0.77-0.44,2.1-0.52,2.68h-1.4c0.06-0.49,0.13-0.95,0.31-1.76c-0.57,0.96-1.58,1.97-3.76,1.97
					c-2.3,0-3.2-1.62-3.2-3.18c0-2.36,1.71-3.88,5.11-4.17c1-0.09,1.66-0.12,3-0.12l0.17-0.79c0.33-1.53,0.1-3.03-2.28-3.03
					c-1.91,0-2.53,1.05-2.92,2.19h-1.49c0.43-1.79,1.64-3.4,4.57-3.4c2.54,0,4.21,1.17,3.54,4.33L138.76,71.76z M138.05,68.35
					c-0.97-0.02-1.85,0.02-2.67,0.1c-2.12,0.18-3.64,1.04-3.64,2.86c0,1.17,0.65,2.08,2.11,2.08c2.65,0,3.6-2.22,4.05-4.32
					L138.05,68.35z"/>
			</g>
		</g>
		<line class="st8" x1="59" y1="54.5" x2="153" y2="54.5"/>
		<line class="st8" x1="58.72" y1="50.67" x2="152.72" y2="50.67"/>
		<line class="st8" x1="59" y1="46.5" x2="153" y2="46.5"/>
		<line class="st8" x1="58.72" y1="42.67" x2="152.72" y2="42.67"/>
		<line class="st8" x1="59" y1="89.5" x2="153" y2="89.5"/>
		<line class="st8" x1="58.72" y1="85.67" x2="152.72" y2="85.67"/>
		<line class="st8" x1="59" y1="81.5" x2="153" y2="81.5"/>
		<line class="st8" x1="58.72" y1="77.67" x2="152.72" y2="77.67"/>
	</g>
</g>
<g id="Menu" class="st6">
	<g class="st7">
		<g>
			<g>
				<path d="M187.65,59.67h1.38v6.25h7.33v-6.25h1.39v14.54h-1.39v-7.05h-7.33v7.05h-1.38V59.67z"/>
				<path d="M209.43,68.74c0,3.05-1.29,5.64-4.59,5.64c-3.13,0-4.43-2.67-4.43-5.59c0-2.83,1.53-5.36,4.56-5.36
					C207.8,63.43,209.43,65.63,209.43,68.74z M201.79,68.79c0,2.5,1.07,4.43,3.15,4.43c2.2,0,3.08-1.87,3.08-4.47
					c0-2.37-1.05-4.15-3.13-4.15C202.84,64.6,201.79,66.35,201.79,68.79z"/>
				<path d="M211.89,66.94c0-1.8-0.02-2.82-0.04-3.29h1.31c0.03,0.27,0.07,1.24,0.05,1.59c0.46-0.93,1.38-1.8,2.97-1.8
					c1.39,0,2.31,0.6,2.73,1.89c0.47-1,1.5-1.89,3.12-1.89c1.54,0,3.09,0.78,3.09,3.57v7.2h-1.32v-6.96c0-1.41-0.44-2.6-2.09-2.6
					c-1.79,0-2.54,1.55-2.54,3.28v6.28h-1.3v-7.06c0-1.43-0.56-2.49-2.04-2.49c-1.6,0-2.62,1.29-2.62,3.48v6.08h-1.32V66.94z"/>
				<path d="M228.92,69.15c-0.02,2.42,1.04,4.11,3.01,4.11c1.87,0,2.44-1.35,2.66-1.93h1.32c-0.28,1.15-1.24,3.1-4.06,3.1
					c-3.28,0-4.3-2.71-4.3-5.54c0-2.59,1.26-5.44,4.39-5.44c3.22,0,4.15,2.6,4.15,4.93c0,0.03,0,0.75-0.01,0.78H228.92z
					 M234.76,68.09c-0.06-2.03-0.87-3.51-2.86-3.51c-2.29,0-2.82,2.13-2.94,3.51H234.76z"/>
			</g>
		</g>
		<g>
			<g>
				<path d="M265.63,60.49h-4.37v-1.23h10.15v1.23h-4.39v13.31h-1.4V60.49z"/>
				<path d="M276.62,73.79l-4.86-14.54h1.48l2.41,7.36c0.67,2.05,1.47,4.49,1.81,5.8h0.04c0.29-1.14,1.19-3.68,1.91-5.81l2.48-7.35
					h1.46l-5.06,14.54H276.62z"/>
				<path d="M290.99,69.76c0.31,2.09,1.74,3.02,3.53,3.02c1.78,0,3.13-0.95,3.13-2.79c0-1.71-0.74-2.45-3.46-3.31
					c-2.93-0.92-4.09-1.86-4.09-3.94c0-2.17,1.59-3.67,4.27-3.67c3,0,4.28,1.85,4.43,3.8h-1.38c-0.24-1.64-1.21-2.62-3.1-2.62
					c-1.85,0-2.77,0.92-2.77,2.37c0,1.47,0.77,2.09,3.2,2.83c3.54,1.09,4.36,2.42,4.36,4.39c0,2.44-1.71,4.11-4.65,4.11
					c-2.96,0-4.64-1.63-4.86-4.19H290.99z"/>
				<path d="M302.93,58.5v6.35c0.52-1.07,1.61-1.82,3.23-1.82c1.4,0,3.32,0.71,3.32,3.77v7h-1.32v-6.75c0-1.79-0.74-2.81-2.37-2.81
					c-1.83,0-2.86,1.22-2.86,3.48v6.08h-1.33V58.5H302.93z"/>
				<path d="M320.97,68.33c0,3.05-1.29,5.64-4.59,5.64c-3.13,0-4.43-2.67-4.43-5.59c0-2.83,1.53-5.36,4.56-5.36
					C319.34,63.02,320.97,65.22,320.97,68.33z M313.33,68.38c0,2.5,1.07,4.43,3.15,4.43c2.2,0,3.08-1.87,3.08-4.47
					c0-2.37-1.05-4.15-3.13-4.15C314.38,64.18,313.33,65.94,313.33,68.38z"/>
				<path d="M323.71,63.23c1.35,4.88,2.13,7.78,2.41,9.21h0.02c0.27-1.26,0.83-3.08,2.54-9.21h1.36c1.64,6,2.21,7.98,2.39,9.13h0.02
					c0.24-1.2,0.93-3.57,2.53-9.13h1.37l-3.23,10.57h-1.45c-0.99-3.57-2.03-7.3-2.37-8.95h-0.02c-0.29,1.59-1.3,5.01-2.47,8.95
					h-1.52l-3.03-10.57H323.71z"/>
				<path d="M338.77,70.82c0.23,1.34,1.23,2.07,2.59,2.07c1.64,0,2.24-0.93,2.24-1.91c0-1.06-0.7-1.64-2.56-2.14
					c-2.48-0.66-3.17-1.59-3.17-2.97c0-1.42,1-2.85,3.36-2.85c2.45,0,3.37,1.4,3.52,2.97h-1.31c-0.2-0.97-0.7-1.87-2.26-1.87
					c-1.36,0-1.96,0.68-1.96,1.65c0,0.88,0.39,1.36,2.27,1.86c2.62,0.71,3.47,1.57,3.47,3.24c0,1.88-1.46,3.11-3.64,3.11
					c-2.03,0-3.68-0.99-3.87-3.17H338.77z"/>
			</g>
		</g>
		<g>
			<g>
				<path d="M385.39,67.32c0-2.76,0.02-5.48,0.09-6.97h-0.04c-0.7,2.47-3.2,9.25-4.79,13.45h-1.35c-1.2-3.49-3.77-10.76-4.52-13.47
					h-0.06c0.11,1.68,0.15,4.96,0.15,7.46v6.02h-1.33V59.26h2.09c1.68,4.63,3.87,10.88,4.41,12.81h0.04
					c0.28-1.22,2.86-8.16,4.62-12.81h2.06v14.54h-1.37V67.32z"/>
				<path d="M398.45,68.33c0,3.05-1.29,5.64-4.59,5.64c-3.13,0-4.43-2.67-4.43-5.59c0-2.83,1.53-5.36,4.56-5.36
					C396.83,63.02,398.45,65.22,398.45,68.33z M390.81,68.38c0,2.5,1.07,4.43,3.15,4.43c2.2,0,3.08-1.87,3.08-4.47
					c0-2.37-1.05-4.15-3.13-4.15C391.87,64.18,390.81,65.94,390.81,68.38z"/>
				<path d="M400.97,63.23c1.58,4.8,2.6,7.92,2.93,9.31h0.02c0.21-1.09,2.38-7.43,3.02-9.31h1.33l-3.66,10.57h-1.54l-3.52-10.57
					H400.97z"/>
				<path d="M410.13,58.5h1.33v2.13h-1.33V58.5z M410.13,63.23h1.33v10.57h-1.33V63.23z"/>
				<path d="M415.28,68.73c-0.02,2.42,1.04,4.11,3.01,4.11c1.87,0,2.44-1.35,2.66-1.93h1.32c-0.28,1.15-1.24,3.1-4.06,3.1
					c-3.28,0-4.3-2.71-4.3-5.54c0-2.59,1.26-5.44,4.39-5.44c3.22,0,4.15,2.6,4.15,4.93c0,0.03,0,0.75-0.01,0.78H415.28z
					 M421.11,67.67c-0.06-2.03-0.87-3.51-2.86-3.51c-2.29,0-2.82,2.13-2.94,3.51H421.11z"/>
				<path d="M425.2,70.82c0.23,1.34,1.23,2.07,2.59,2.07c1.64,0,2.24-0.93,2.24-1.91c0-1.06-0.7-1.64-2.56-2.14
					c-2.48-0.66-3.17-1.59-3.17-2.97c0-1.42,1-2.85,3.36-2.85c2.45,0,3.37,1.4,3.52,2.97h-1.31c-0.2-0.97-0.7-1.87-2.26-1.87
					c-1.36,0-1.96,0.68-1.96,1.65c0,0.88,0.39,1.36,2.27,1.86c2.62,0.71,3.47,1.57,3.47,3.24c0,1.88-1.46,3.11-3.64,3.11
					c-2.03,0-3.68-0.99-3.87-3.17H425.2z"/>
			</g>
		</g>
		<g>
			<g>
				<path d="M458.55,73.79V59.26h1.88c6.34,10.85,7.15,12.23,7.44,12.85h0.02c-0.13-2.01-0.15-4.35-0.15-6.7v-6.15h1.35v14.54h-1.7
					c-6.78-11.7-7.21-12.53-7.56-13.16h-0.02c0.1,1.89,0.07,4.3,0.07,6.92v6.24H458.55z"/>
				<path d="M473.11,68.73c-0.02,2.42,1.04,4.11,3.01,4.11c1.87,0,2.44-1.35,2.66-1.93h1.32c-0.28,1.15-1.24,3.1-4.06,3.1
					c-3.28,0-4.3-2.71-4.3-5.54c0-2.59,1.26-5.44,4.39-5.44c3.22,0,4.15,2.6,4.15,4.93c0,0.03,0,0.75-0.01,0.78H473.11z
					 M478.94,67.67c-0.06-2.03-0.87-3.51-2.86-3.51c-2.29,0-2.82,2.13-2.94,3.51H478.94z"/>
				<path d="M482.98,63.23c1.35,4.88,2.13,7.78,2.41,9.21h0.02c0.27-1.26,0.83-3.08,2.54-9.21h1.36c1.64,6,2.21,7.98,2.39,9.13h0.02
					c0.24-1.2,0.93-3.57,2.53-9.13h1.37l-3.23,10.57h-1.45c-0.99-3.57-2.03-7.3-2.37-8.95h-0.02c-0.29,1.59-1.3,5.01-2.47,8.95
					h-1.52l-3.03-10.57H482.98z"/>
				<path d="M504.51,66.96v6.83h-1.38V59.26h4.86c2.5,0,4.25,1.24,4.25,3.68c0,2.14-1.32,3.07-2.43,3.39
					c1.55,0.46,2.24,1.68,2.24,3.72v0.22c0,1.37,0.01,2.65,0.21,3.52h-1.39c-0.19-0.57-0.24-2.05-0.24-3.48v-0.26
					c0-2.21-0.8-3.1-3.37-3.1H504.51z M504.51,65.78h2.85c2.07,0,3.43-0.6,3.43-2.8c0-1.63-1.07-2.55-3-2.55h-3.29V65.78z"/>
				<path d="M515.69,68.73c-0.02,2.42,1.04,4.11,3.01,4.11c1.87,0,2.44-1.35,2.66-1.93h1.32c-0.28,1.15-1.24,3.1-4.06,3.1
					c-3.28,0-4.3-2.71-4.3-5.54c0-2.59,1.26-5.44,4.39-5.44c3.22,0,4.15,2.6,4.15,4.93c0,0.03,0,0.75-0.01,0.78H515.69z
					 M521.53,67.67c-0.06-2.03-0.87-3.51-2.86-3.51c-2.29,0-2.82,2.13-2.94,3.51H521.53z"/>
				<path d="M525.29,73.79V58.5h1.33v15.3H525.29z"/>
				<path d="M530.44,68.73c-0.02,2.42,1.04,4.11,3.01,4.11c1.87,0,2.44-1.35,2.66-1.93h1.32c-0.28,1.15-1.24,3.1-4.06,3.1
					c-3.28,0-4.3-2.71-4.3-5.54c0-2.59,1.26-5.44,4.39-5.44c3.22,0,4.15,2.6,4.15,4.93c0,0.03,0,0.75-0.01,0.78H530.44z
					 M536.27,67.67c-0.06-2.03-0.87-3.51-2.86-3.51c-2.29,0-2.82,2.13-2.94,3.51H536.27z"/>
				<path d="M547.08,71.6c0,0.73,0.08,1.71,0.16,2.2H546c-0.07-0.39-0.15-0.93-0.15-1.77c-0.39,1.14-1.49,1.96-3.28,1.96
					c-2.57,0-3.31-1.78-3.31-3.2c0-1.47,0.92-3.31,4.75-3.31c0.75,0,1.26,0,1.76,0v-1.12c0-1.05-0.29-2.23-2.29-2.23
					c-1.65,0-2.28,0.74-2.48,2.05h-1.31c0.18-1.81,1.2-3.15,3.85-3.15c2.1,0,3.55,0.9,3.55,3.23V71.6z M545.8,68.53
					c-0.43,0-1.12,0-1.82,0c-2.81,0-3.34,1.14-3.34,2.2c0,1.15,0.7,2.09,2.13,2.09c2.23,0,3.03-1.51,3.03-4.08V68.53z"/>
				<path d="M550.62,70.82c0.23,1.34,1.23,2.07,2.59,2.07c1.64,0,2.24-0.93,2.24-1.91c0-1.06-0.7-1.64-2.56-2.14
					c-2.48-0.66-3.17-1.59-3.17-2.97c0-1.42,1-2.85,3.36-2.85c2.45,0,3.37,1.4,3.52,2.97h-1.31c-0.2-0.97-0.7-1.87-2.26-1.87
					c-1.36,0-1.96,0.68-1.96,1.65c0,0.88,0.39,1.36,2.27,1.86c2.62,0.71,3.47,1.57,3.47,3.24c0,1.88-1.46,3.11-3.64,3.11
					c-2.03,0-3.68-0.99-3.87-3.17H550.62z"/>
				<path d="M559.84,68.73c-0.02,2.42,1.04,4.11,3.01,4.11c1.87,0,2.44-1.35,2.66-1.93h1.32c-0.28,1.15-1.24,3.1-4.06,3.1
					c-3.28,0-4.3-2.71-4.3-5.54c0-2.59,1.26-5.44,4.39-5.44c3.22,0,4.15,2.6,4.15,4.93c0,0.03,0,0.75-0.01,0.78H559.84z
					 M565.67,67.67c-0.06-2.03-0.87-3.51-2.86-3.51c-2.29,0-2.82,2.13-2.94,3.51H565.67z"/>
				<path d="M569.75,70.82c0.23,1.34,1.23,2.07,2.59,2.07c1.64,0,2.24-0.93,2.24-1.91c0-1.06-0.7-1.64-2.56-2.14
					c-2.48-0.66-3.17-1.59-3.17-2.97c0-1.42,1-2.85,3.36-2.85c2.45,0,3.37,1.4,3.52,2.97h-1.31c-0.2-0.97-0.7-1.87-2.26-1.87
					c-1.36,0-1.96,0.68-1.96,1.65c0,0.88,0.39,1.36,2.27,1.86c2.62,0.71,3.47,1.57,3.47,3.24c0,1.88-1.46,3.11-3.64,3.11
					c-2.03,0-3.68-0.99-3.87-3.17H569.75z"/>
			</g>
		</g>
		<g>
			<g>
				<path d="M603.55,59.26h4.71c2.69,0,4.55,1.4,4.55,3.91c0,2.79-1.93,4.14-4.78,4.14h-3.08v6.49h-1.39V59.26z M604.94,66.11h3.05
					c2,0,3.38-0.67,3.38-2.92c0-1.88-1.37-2.76-3.38-2.76h-3.05V66.11z"/>
				<path d="M623.39,68.33c0,3.05-1.29,5.64-4.59,5.64c-3.13,0-4.43-2.67-4.43-5.59c0-2.83,1.53-5.36,4.56-5.36
					C621.77,63.02,623.39,65.22,623.39,68.33z M615.75,68.38c0,2.5,1.07,4.43,3.15,4.43c2.2,0,3.08-1.87,3.08-4.47
					c0-2.37-1.05-4.15-3.13-4.15C616.81,64.18,615.75,65.94,615.75,68.38z"/>
				<path d="M627.17,72.39v5.64h-1.32V66.36c0-1.45,0-2.49-0.04-3.13h1.31c0.02,0.37,0.04,1.21,0.05,1.82
					c0.57-1.2,1.66-2.03,3.39-2.03c2.33,0,3.92,1.88,3.92,5.3c0,3.6-1.87,5.65-4.33,5.65C628.56,73.97,627.66,73.3,627.17,72.39z
					 M633.1,68.38c0-2.64-1.08-4.16-2.93-4.16c-2.36,0-3.05,1.7-3.05,4.33c0,2.44,0.43,4.23,2.94,4.23
					C631.94,72.78,633.1,71.17,633.1,68.38z"/>
				<path d="M644.62,70.86c0,1.25,0.02,2.44,0.04,2.94h-1.28c-0.06-0.28-0.08-1-0.09-1.83c-0.41,1.15-1.54,2.02-3.17,2.02
					c-1.48,0-3.22-0.59-3.22-3.61v-7.14h1.32v6.85c0,1.46,0.45,2.7,2.23,2.7c1.64,0,2.8-1.13,2.8-3.64v-5.91h1.36V70.86z"/>
				<path d="M647.84,73.79V58.5h1.33v15.3H647.84z"/>
				<path d="M659.43,71.6c0,0.73,0.08,1.71,0.17,2.2h-1.25c-0.07-0.39-0.15-0.93-0.15-1.77c-0.39,1.14-1.49,1.96-3.28,1.96
					c-2.57,0-3.31-1.78-3.31-3.2c0-1.47,0.92-3.31,4.75-3.31c0.75,0,1.26,0,1.76,0v-1.12c0-1.05-0.29-2.23-2.29-2.23
					c-1.65,0-2.28,0.74-2.48,2.05h-1.31c0.18-1.81,1.21-3.15,3.85-3.15c2.1,0,3.55,0.9,3.55,3.23V71.6z M658.15,68.53
					c-0.43,0-1.12,0-1.82,0c-2.81,0-3.34,1.14-3.34,2.2c0,1.15,0.7,2.09,2.13,2.09c2.23,0,3.03-1.51,3.03-4.08V68.53z"/>
				<path d="M662.64,66.82c0-1.66-0.02-3.14-0.04-3.59h1.31c0.03,0.51,0.03,1.19,0.03,2.25c0.55-1.47,1.8-2.42,3.5-2.46v1.42
					c-2.45,0.13-3.48,1.78-3.48,4v5.35h-1.33V66.82z"/>
			</g>
		</g>
		<g>
			<g>
				<path d="M705.39,68.32c0-2.76,0.02-5.48,0.09-6.97h-0.04c-0.7,2.47-3.2,9.25-4.79,13.45h-1.35c-1.2-3.49-3.77-10.76-4.52-13.47
					h-0.05c0.11,1.68,0.15,4.96,0.15,7.46v6.02h-1.33V60.26h2.09c1.68,4.63,3.87,10.88,4.41,12.81h0.04
					c0.28-1.22,2.86-8.16,4.62-12.81h2.06v14.54h-1.37V68.32z"/>
				<path d="M710.29,64.23c1.79,5.36,2.7,7.96,3.01,9.26h0.02c0.33-1.1,1.26-4.16,2.92-9.26h1.4l-3.73,11.04
					c-1.07,3.14-1.78,3.92-3.67,3.92c-0.23,0-0.64-0.02-0.85-0.07v-1.19c0.22,0.04,0.6,0.06,0.88,0.06c1.42,0,1.78-1.19,2.38-2.93
					l-3.8-10.83H710.29z"/>
				<path d="M726.3,67.96v6.83h-1.38V60.26h4.86c2.5,0,4.25,1.24,4.25,3.68c0,2.14-1.32,3.07-2.43,3.39
					c1.55,0.46,2.24,1.68,2.24,3.72v0.22c0,1.37,0.01,2.65,0.21,3.52h-1.39c-0.19-0.57-0.24-2.05-0.24-3.48v-0.26
					c0-2.21-0.8-3.1-3.37-3.1H726.3z M726.3,66.78h2.85c2.07,0,3.43-0.6,3.43-2.8c0-1.63-1.07-2.55-3-2.55h-3.29V66.78z"/>
				<path d="M737.49,69.73c-0.02,2.42,1.04,4.11,3.01,4.11c1.87,0,2.44-1.35,2.66-1.93h1.32c-0.29,1.15-1.24,3.1-4.06,3.1
					c-3.28,0-4.3-2.71-4.3-5.54c0-2.59,1.26-5.44,4.39-5.44c3.22,0,4.14,2.6,4.14,4.93c0,0.03,0,0.75-0.01,0.78H737.49z
					 M743.32,68.67c-0.06-2.03-0.87-3.51-2.86-3.51c-2.29,0-2.82,2.13-2.94,3.51H743.32z"/>
				<path d="M747.08,67.54c0-2.21-0.02-2.87-0.04-3.31h1.31c0.02,0.21,0.07,1.35,0.05,1.77c0.44-1,1.37-1.98,3.18-1.98
					c1.86,0,3.37,0.99,3.37,4v6.78h-1.35v-6.61c0-1.67-0.6-2.95-2.28-2.95c-2.12,0-2.93,1.65-2.93,4v5.55h-1.33V67.54z"/>
				<path d="M756.56,64.23h1.77v-3.15h1.32v3.15h2.22v1.14h-2.22v7.06c0,0.94,0.24,1.34,1.15,1.34c0.31,0,0.68-0.04,0.89-0.08v1.06
					c-0.36,0.14-0.9,0.17-1.26,0.17c-1.34,0-2.11-0.5-2.11-2.17v-7.39h-1.77V64.23z"/>
				<path d="M770.83,72.6c0,0.73,0.08,1.71,0.17,2.2h-1.25c-0.07-0.39-0.15-0.93-0.15-1.77c-0.39,1.14-1.49,1.96-3.28,1.96
					c-2.57,0-3.31-1.78-3.31-3.2c0-1.47,0.92-3.31,4.75-3.31c0.75,0,1.26,0,1.76,0v-1.12c0-1.05-0.29-2.23-2.29-2.23
					c-1.65,0-2.28,0.74-2.48,2.05h-1.31c0.18-1.81,1.21-3.15,3.85-3.15c2.1,0,3.55,0.9,3.55,3.23V72.6z M769.55,69.53
					c-0.43,0-1.12,0-1.82,0c-2.81,0-3.34,1.14-3.34,2.2c0,1.15,0.7,2.09,2.13,2.09c2.23,0,3.03-1.51,3.03-4.08V69.53z"/>
				<path d="M774.04,74.79V59.5h1.33v15.3H774.04z"/>
				<path d="M778.9,71.82c0.23,1.34,1.22,2.07,2.59,2.07c1.64,0,2.24-0.93,2.24-1.91c0-1.06-0.7-1.64-2.56-2.14
					c-2.48-0.66-3.17-1.59-3.17-2.97c0-1.42,1-2.85,3.36-2.85c2.45,0,3.37,1.4,3.52,2.97h-1.31c-0.2-0.97-0.7-1.87-2.26-1.87
					c-1.36,0-1.96,0.68-1.96,1.65c0,0.88,0.39,1.36,2.27,1.86c2.62,0.71,3.47,1.57,3.47,3.24c0,1.88-1.46,3.11-3.64,3.11
					c-2.03,0-3.68-0.99-3.87-3.17H778.9z"/>
			</g>
		</g>
	</g>
	<g class="st7">
		<circle class="st9" cx="1204.5" cy="68.5" r="21.5"/>
		<circle class="st10" cx="1204.5" cy="60.5" r="6.5"/>
		<ellipse class="st10" cx="1205" cy="76.5" rx="10" ry="11.5"/>
	</g>
</g>
<g id="Movies" class="st6">
	<g class="st7">
		<rect x="63" y="205" class="st11" width="222" height="145"/>
		<rect x="296" y="205" class="st11" width="222" height="145"/>
		<rect x="529" y="205" class="st11" width="222" height="145"/>
		<rect x="762" y="206" class="st11" width="222" height="145"/>
		<rect x="995" y="206" class="st11" width="222" height="145"/>
	</g>
	<g class="st7">
		<rect x="63" y="454" class="st11" width="222" height="145"/>
		<rect x="296" y="454" class="st11" width="222" height="145"/>
		<rect x="529" y="454" class="st11" width="222" height="145"/>
		<rect x="762" y="455" class="st11" width="222" height="145"/>
		<rect x="995" y="455" class="st11" width="222" height="145"/>
	</g>
	<g class="st7">
		<g>
			<path d="M65.87,174.98h-6.21v-2.44h15.33v2.44h-6.21v17h-2.9V174.98z"/>
			<path d="M77.27,181.6c0-1.88-0.02-3.03-0.03-3.87h2.7c0.04,0.38,0.08,1.56,0.08,2.83c0.72-1.87,2.39-3.11,4.76-3.17v2.71
				c-2.91,0.06-4.76,1.44-4.76,5.1v6.78h-2.75V181.6z"/>
			<path d="M89.14,185.38c0.02,2.68,1.36,4.68,3.7,4.68c2.14,0,2.81-1.06,3.26-2.07h2.76c-0.55,1.81-2.08,4.33-6.1,4.33
				c-4.52,0-6.39-3.62-6.39-7.3c0-4.28,2.17-7.63,6.55-7.63c4.66,0,6.19,3.66,6.19,6.8c0,0.44,0,0.8-0.04,1.19H89.14z M96.33,183.51
				c-0.03-2.21-1.11-4-3.44-4c-2.39,0-3.42,1.66-3.66,4H96.33z"/>
			<path d="M102.17,181.32c0-1.23,0-2.5-0.03-3.59h2.67c0.07,0.41,0.11,1.81,0.11,2.24c0.55-1.16,1.71-2.58,4.42-2.58
				c2.71,0,4.75,1.69,4.75,5.44v9.15h-2.75v-8.81c0-2.05-0.78-3.44-2.87-3.44c-2.49,0-3.55,1.83-3.55,4.63v7.62h-2.75V181.32z"/>
			<path d="M130.24,171.45v16.53c0,1.33,0,2.64,0.03,4.01h-2.64c-0.07-0.39-0.12-1.41-0.13-1.92c-0.7,1.42-2.1,2.26-4.4,2.26
				c-3.65,0-5.91-2.96-5.91-7.32c0-4.39,2.43-7.61,6.39-7.61c2.43,0,3.55,0.96,3.92,1.73v-7.67H130.24z M120.02,184.91
				c0,3.31,1.53,5.11,3.71,5.11c3.21,0,3.86-2.42,3.86-5.34c0-3.03-0.6-5-3.69-5C121.48,179.69,120.02,181.6,120.02,184.91z"/>
			<path d="M134.3,171.45h2.75v3.16h-2.75V171.45z M134.3,177.73h2.75v14.25h-2.75V177.73z"/>
			<path d="M141.14,181.32c0-1.23,0-2.5-0.03-3.59h2.67c0.07,0.41,0.11,1.81,0.11,2.24c0.55-1.16,1.71-2.58,4.42-2.58
				c2.71,0,4.75,1.69,4.75,5.44v9.15h-2.75v-8.81c0-2.05-0.78-3.44-2.87-3.44c-2.49,0-3.55,1.83-3.55,4.63v7.62h-2.75V181.32z"/>
			<path d="M169.1,190.61c0,4.57-1.85,7.23-6.65,7.23c-4.49,0-5.76-2.51-6-4.39h2.8c0.39,1.45,1.54,2.25,3.31,2.25
				c3.11,0,3.85-1.96,3.85-5.14v-1.06c-0.76,1.53-2.04,2.41-4.37,2.41c-3.56,0-5.9-2.9-5.9-7.01c0-4.62,2.7-7.49,6.17-7.49
				c2.67,0,3.8,1.25,4.1,2.15c0.03-0.6,0.09-1.52,0.12-1.81h2.6c-0.01,0.91-0.04,2.74-0.04,4.11V190.61z M159,184.76
				c0,2.9,1.5,4.82,3.71,4.82c2.94,0,3.79-1.98,3.79-5c0-3.05-0.76-4.9-3.7-4.9C160.34,179.69,159,181.72,159,184.76z"/>
		</g>
	</g>
	<g class="st7">
		<g>
			<path d="M68.31,433.96l-1.98,5.58h-2.86l6.87-19.45h3.57l7.16,19.45H78l-2.05-5.58H68.31z M75.24,431.52
				c-1.76-4.92-2.76-7.62-3.19-9.15h-0.03c-0.48,1.7-1.58,4.94-3,9.15H75.24z"/>
			<path d="M95.08,435.13c-0.58,2.44-2.25,4.75-5.99,4.75c-4.02,0-6.42-2.87-6.42-7.38c0-4.07,2.34-7.54,6.61-7.54
				c4.24,0,5.65,3.03,5.81,4.82h-2.71c-0.33-1.39-1.19-2.57-3.15-2.57c-2.38,0-3.73,2.05-3.73,5.19c0,3.21,1.33,5.23,3.66,5.23
				c1.7,0,2.68-0.92,3.21-2.5H95.08z"/>
			<path d="M96.21,425.29h2.41v-4.14h2.75v4.14h3.08v2.19h-3.08v8.09c0,1.33,0.34,1.98,1.6,1.98c0.32,0,0.8-0.02,1.18-0.1v2.02
				c-0.64,0.23-1.53,0.26-2.23,0.26c-2.33,0-3.3-1.21-3.3-3.61v-8.65h-2.41V425.29z"/>
			<path d="M107.11,419.01h2.75v3.16h-2.75V419.01z M107.11,425.29h2.75v14.25h-2.75V425.29z"/>
			<path d="M126.38,432.38c0,4.15-2.4,7.49-6.79,7.49c-4.15,0-6.64-3.16-6.64-7.44c0-4.25,2.47-7.49,6.81-7.49
				C123.77,424.95,126.38,427.91,126.38,432.38z M115.78,432.41c0,3.05,1.49,5.21,3.92,5.21c2.48,0,3.87-2.06,3.87-5.19
				c0-3.16-1.39-5.22-3.92-5.22C117.14,427.21,115.78,429.21,115.78,432.41z"/>
			<path d="M129.49,428.88c0-1.23,0-2.5-0.03-3.59h2.67c0.07,0.41,0.11,1.81,0.11,2.24c0.55-1.16,1.71-2.58,4.42-2.58
				c2.71,0,4.75,1.69,4.75,5.44v9.15h-2.75v-8.81c0-2.05-0.78-3.44-2.87-3.44c-2.49,0-3.55,1.83-3.55,4.63v7.62h-2.75V428.88z"/>
			<path d="M169.53,431.44c0-3.56,0.04-7.24,0.12-9.31h-0.11c-0.85,3.31-3.77,11.3-5.93,17.41h-2.55
				c-1.63-5.04-4.66-14.03-5.53-17.45h-0.09c0.15,2.25,0.22,6.51,0.22,9.85v7.61h-2.7v-19.45h4.3c2.08,5.85,4.59,13.37,5.24,15.93
				h0.04c0.46-2,3.45-10.22,5.61-15.93h4.17v19.45h-2.81V431.44z"/>
			<path d="M189.33,432.38c0,4.15-2.4,7.49-6.79,7.49c-4.15,0-6.64-3.16-6.64-7.44c0-4.25,2.47-7.49,6.81-7.49
				C186.71,424.95,189.33,427.91,189.33,432.38z M178.72,432.41c0,3.05,1.49,5.21,3.92,5.21c2.48,0,3.87-2.06,3.87-5.19
				c0-3.16-1.39-5.22-3.92-5.22C180.08,427.21,178.72,429.21,178.72,432.41z"/>
			<path d="M193.63,425.29c1.81,5.64,3.16,9.97,3.57,11.73h0.03c0.36-1.74,1.85-6.01,3.82-11.73h2.78l-5.2,14.25h-2.99l-4.95-14.25
				H193.63z"/>
			<path d="M206.17,419.01h2.75v3.16h-2.75V419.01z M206.17,425.29h2.75v14.25h-2.75V425.29z"/>
			<path d="M214.8,432.94c0.02,2.68,1.36,4.68,3.7,4.68c2.14,0,2.81-1.06,3.26-2.07h2.76c-0.55,1.81-2.08,4.33-6.1,4.33
				c-4.52,0-6.39-3.62-6.39-7.3c0-4.28,2.17-7.63,6.55-7.63c4.66,0,6.19,3.66,6.19,6.8c0,0.44,0,0.8-0.04,1.19H214.8z
				 M221.98,431.07c-0.03-2.21-1.11-4-3.44-4c-2.39,0-3.42,1.66-3.66,4H221.98z"/>
			<path d="M229.34,435.42c0.39,1.48,1.5,2.34,3.34,2.34c1.97,0,2.74-0.83,2.74-2.04c0-1.25-0.65-1.82-3.24-2.45
				c-4.18-1.02-5.02-2.3-5.02-4.25c0-2.03,1.48-4.07,5.27-4.07c3.8,0,5.3,2.17,5.47,4.15h-2.65c-0.19-0.85-0.82-2.07-2.95-2.07
				c-1.86,0-2.42,0.89-2.42,1.76c0,1,0.56,1.49,3.11,2.1c4.41,1.04,5.23,2.52,5.23,4.63c0,2.47-1.94,4.36-5.65,4.36
				c-3.82,0-5.62-1.91-5.97-4.46H229.34z"/>
		</g>
	</g>
	<g class="st7">
		<rect x="64" y="686" class="st11" width="222" height="145"/>
		<rect x="297" y="686" class="st11" width="222" height="145"/>
		<rect x="530" y="686" class="st11" width="222" height="145"/>
		<rect x="763" y="687" class="st11" width="222" height="145"/>
		<rect x="996" y="687" class="st11" width="222" height="145"/>
	</g>
	<g class="st7">
		<g>
			<path d="M69.32,663.12v8.42h-2.85v-19.45h7.78c4.04,0,6.2,2.2,6.2,5.23c0,2.54-1.45,4.05-3.22,4.58
				c1.47,0.41,2.86,1.56,2.86,4.96v0.86c0,1.33-0.05,2.99,0.27,3.82h-2.79c-0.35-0.84-0.34-2.34-0.34-4.22v-0.39
				c0-2.65-0.74-3.81-4.16-3.81H69.32z M69.32,660.73h4.1c2.85,0,4.07-1.07,4.07-3.15c0-1.98-1.29-3.09-3.82-3.09h-4.35V660.73z"/>
			<path d="M85.88,664.94c0.02,2.68,1.36,4.68,3.7,4.68c2.14,0,2.81-1.06,3.26-2.07h2.76c-0.55,1.81-2.08,4.33-6.1,4.33
				c-4.52,0-6.39-3.62-6.39-7.3c0-4.28,2.17-7.63,6.55-7.63c4.66,0,6.19,3.66,6.19,6.8c0,0.44,0,0.8-0.04,1.19H85.88z M93.06,663.07
				c-0.03-2.21-1.11-4-3.44-4c-2.39,0-3.42,1.66-3.66,4H93.06z"/>
			<path d="M109.75,668.32c0,1.31,0.11,2.82,0.2,3.22h-2.63c-0.11-0.31-0.2-1-0.23-1.77c-0.5,0.92-1.61,2.11-4.32,2.11
				c-3.38,0-4.81-2.2-4.81-4.38c0-3.2,2.52-4.66,6.75-4.66c0.93,0,1.83,0,2.35,0v-1.15c0-1.21-0.39-2.64-2.9-2.64
				c-2.24,0-2.64,1.09-2.88,2.19h-2.65c0.19-2.07,1.48-4.3,5.62-4.29c3.55,0.01,5.51,1.45,5.51,4.72V668.32z M107.06,664.68
				c-0.43,0-1.45,0-2.17,0c-2.75,0-4.15,0.77-4.15,2.66c0,1.39,0.94,2.43,2.63,2.43c3.25,0,3.69-2.2,3.69-4.65V664.68z"/>
			<path d="M113.85,671.54v-20.53h2.75v20.53H113.85z"/>
			<path d="M120.68,651.01h2.75v3.16h-2.75V651.01z M120.68,657.29h2.75v14.25h-2.75V657.29z"/>
			<path d="M125.77,657.29h2.41v-4.14h2.75v4.14H134v2.19h-3.08v8.09c0,1.33,0.34,1.98,1.6,1.98c0.32,0,0.8-0.02,1.18-0.1v2.02
				c-0.64,0.23-1.53,0.26-2.23,0.26c-2.33,0-3.3-1.21-3.3-3.61v-8.65h-2.41V657.29z"/>
			<path d="M137.85,657.29c2.14,6.46,3.41,10.36,3.76,11.78h0.03c0.43-1.58,1.41-4.83,3.62-11.78h2.77l-5.06,14.86
				c-1.43,4.16-2.52,5.25-5.53,5.25c-0.43,0-1.02-0.03-1.59-0.1v-2.34c0.34,0.04,0.76,0.07,1.15,0.07c1.74,0,2.43-0.74,3.21-2.96
				l-5.31-14.78H137.85z"/>
			<path d="M161.76,654.54h-6.21v-2.44h15.33v2.44h-6.21v17h-2.9V654.54z"/>
			<path d="M178.35,671.54l-7.04-19.45h3.1l3.32,9.56c0.98,2.83,1.92,5.59,2.35,7.41h0.06c0.41-1.63,1.45-4.52,2.45-7.33l3.46-9.65
				h2.97l-7.27,19.45H178.35z"/>
		</g>
	</g>
	<g class="st7">
		<g>
		</g>
	</g>
</g>
</svg>
